<?xml version="1.0" standalone="no"?>
<!DOCTYPE svg PUBLIC "-//W3C//DTD SVG 20010904//EN"
 "http://www.w3.org/TR/2001/REC-SVG-20010904/DTD/svg10.dtd">
<svg version="1.0" xmlns="http://www.w3.org/2000/svg"
 width="512.000000pt" height="512.000000pt" viewBox="0 0 512.000000 512.000000"
 preserveAspectRatio="xMidYMid meet">

<g transform="translate(0.000000,512.000000) scale(0.100000,-0.100000)"
fill="#000000" stroke="none">
<path d="M2612 5109 c-179 -30 -316 -118 -413 -266 -43 -66 -89 -169 -104
-233 l-6 -26 -42 41 c-44 42 -88 60 -172 72 l-48 6 5 -64 c9 -113 59 -184 146
-209 26 -7 26 -8 -13 -14 -169 -29 -257 -64 -336 -136 -43 -39 -44 -40 -24
-56 37 -30 107 -56 164 -61 64 -6 166 16 219 47 18 11 35 20 37 20 2 0 2 -21
-2 -48 l-5 -47 45 3 c38 3 49 -1 80 -28 43 -38 53 -71 60 -197 l4 -93 -93 -51
c-51 -27 -96 -54 -99 -58 -3 -5 6 -16 18 -24 45 -30 146 -138 190 -205 82
-122 146 -297 163 -446 4 -32 13 -60 19 -63 7 -2 118 47 246 110 129 62 308
149 398 193 l163 79 -6 90 c-5 86 -31 273 -41 305 -3 9 9 38 27 65 24 38 31
60 30 90 -4 71 -1 169 4 174 6 7 56 -53 103 -124 51 -77 92 -201 130 -390 30
-153 66 -408 77 -560 l7 -85 59 32 c33 17 78 48 101 69 l42 37 -18 86 c-39
191 -152 529 -223 671 -62 123 -167 242 -251 287 l-42 22 2 121 c2 99 -1 126
-16 153 -16 30 -19 31 -40 18 -12 -8 -179 -105 -372 -216 -336 -194 -351 -201
-375 -187 -159 91 -170 98 -170 120 0 41 30 217 39 236 8 14 27 19 100 24 263
19 557 130 748 284 l41 33 -14 60 c-58 251 -270 384 -542 339z m456 -891 c17
-17 15 -73 -3 -108 -10 -18 -46 -46 -105 -80 -101 -58 -120 -57 -120 7 0 59
23 88 117 142 49 28 90 51 94 51 3 0 10 -5 17 -12z"/>
<path d="M3016 4488 c-20 -28 -21 -64 -1 -71 19 -8 57 41 53 67 -4 29 -33 31
-52 4z"/>
<path d="M2716 4325 c-21 -22 -31 -64 -18 -77 16 -16 41 -2 53 28 18 50 -3 80
-35 49z"/>
<path d="M1737 3480 c-159 -177 -280 -440 -343 -749 -30 -145 -41 -348 -36
-623 l4 -177 75 -17 c99 -22 191 -15 261 19 69 33 152 86 153 98 1 5 2 12 3
17 1 4 6 48 10 97 7 87 15 148 19 151 1 1 21 18 45 38 94 77 163 187 193 306
18 73 16 244 -6 345 -58 272 -196 533 -291 551 -28 5 -36 0 -87 -56z"/>
<path d="M2862 2782 l-373 -217 3 -290 c3 -271 4 -293 24 -335 44 -92 127
-149 230 -158 79 -6 135 13 219 73 114 81 204 206 252 350 27 80 27 81 31 438
2 196 0 357 -5 356 -4 0 -176 -98 -381 -217z"/>
<path d="M3392 981 c-74 -114 -192 -182 -329 -189 -129 -7 -261 26 -312 77
l-21 21 0 -44 c0 -27 7 -52 18 -65 9 -11 115 -76 234 -144 179 -103 228 -127
283 -137 175 -33 342 44 361 165 21 141 -41 268 -167 343 l-36 22 -31 -49z"/>
<path d="M2600 486 c-27 -82 -139 -151 -286 -177 -138 -24 -335 9 -395 67
l-29 28 0 -41 c0 -25 7 -50 20 -66 23 -29 390 -244 465 -273 108 -40 274 -16
354 52 51 44 65 87 59 184 -4 60 -10 87 -31 123 -25 42 -120 137 -137 137 -5
0 -14 -15 -20 -34z"/>
</g>
</svg>
