<?xml version="1.0" standalone="no"?>
<!DOCTYPE svg PUBLIC "-//W3C//DTD SVG 20010904//EN"
 "http://www.w3.org/TR/2001/REC-SVG-20010904/DTD/svg10.dtd">
<svg version="1.0" xmlns="http://www.w3.org/2000/svg"
 width="512.000000pt" height="512.000000pt" viewBox="0 0 512.000000 512.000000"
 preserveAspectRatio="xMidYMid meet">

<g transform="translate(0.000000,512.000000) scale(0.100000,-0.100000)"
fill="#000000" stroke="none">
<path d="M2155 1140 l-340 -5 -57 -27 c-141 -66 -218 -205 -218 -394 l0 -51
-137 -5 c-172 -7 -227 -25 -312 -104 -86 -79 -113 -146 -119 -291 l-5 -113
1592 0 1591 0 0 98 c0 58 -6 119 -15 148 -34 115 -142 219 -260 249 -36 9
-104 15 -176 15 l-116 0 -5 98 c-7 135 -33 199 -112 278 -43 43 -79 68 -121
85 -60 24 -61 24 -455 24 -217 0 -548 -2 -735 -5z"/>
</g>
</svg>
