<?xml version="1.0" standalone="no"?>
<!DOCTYPE svg PUBLIC "-//W3C//DTD SVG 20010904//EN"
 "http://www.w3.org/TR/2001/REC-SVG-20010904/DTD/svg10.dtd">
<svg version="1.0" xmlns="http://www.w3.org/2000/svg"
 width="512.000000pt" height="512.000000pt" viewBox="0 0 512.000000 512.000000"
 preserveAspectRatio="xMidYMid meet">

<g transform="translate(0.000000,512.000000) scale(0.100000,-0.100000)"
fill="#000000" stroke="none">
<path d="M2540 4890 c0 -6 -19 -31 -42 -57 -46 -49 -125 -93 -170 -93 -32 0
-33 -7 -14 -71 24 -79 65 -150 154 -268 l87 -113 25 33 c14 19 41 52 61 74 20
22 47 65 60 95 47 113 122 206 209 262 53 34 156 68 209 69 56 1 15 13 -124
38 -192 34 -455 52 -455 31z"/>
<path d="M2075 4850 c-345 -69 -694 -226 -981 -441 -112 -84 -274 -229 -336
-302 l-47 -54 42 -6 c57 -8 263 8 448 34 225 31 331 20 487 -52 160 -74 286
-196 395 -382 33 -57 64 -95 114 -137 l69 -58 46 77 c92 152 109 208 109 362
0 141 -26 222 -117 368 l-68 110 -43 -35 c-23 -19 -68 -47 -100 -62 -51 -24
-70 -27 -158 -27 -88 0 -107 3 -157 27 -113 53 -188 131 -188 196 0 74 145
162 281 170 95 6 161 -10 235 -54 39 -23 54 -29 50 -18 -4 9 -11 59 -16 110
-13 121 -1 164 50 181 l35 12 -30 0 c-16 -1 -70 -9 -120 -19z"/>
<path d="M3556 4613 c-71 -226 -232 -391 -427 -433 -83 -18 -250 -9 -324 19
-33 12 -67 24 -77 27 -12 4 -26 -9 -50 -47 l-34 -54 20 -60 c16 -50 20 -88 20
-225 1 -197 -2 -208 -110 -425 -79 -159 -108 -255 -102 -346 l3 -48 61 77 c52
65 67 95 97 184 111 332 310 578 562 694 144 66 240 84 510 95 290 11 587 47
613 74 15 16 -239 233 -398 340 -103 69 -286 171 -323 180 -21 6 -25 0 -41
-52z"/>
<path d="M4515 3898 c-2 -7 -16 -51 -31 -98 -88 -283 -229 -548 -375 -705
-337 -362 -882 -436 -1372 -188 l-107 55 -19 -24 c-11 -12 -34 -47 -51 -75
-30 -50 -32 -55 -19 -85 7 -18 49 -79 92 -136 153 -201 198 -320 201 -527 0
-66 -3 -142 -7 -169 l-9 -48 -21 20 c-12 11 -47 33 -77 49 -50 25 -64 28 -160
28 -94 0 -111 -3 -161 -28 -35 -16 -75 -48 -105 -82 -122 -138 -119 -135 -163
-135 -34 0 -126 18 -140 27 -2 1 21 29 50 62 114 126 201 311 233 500 24 143
22 188 -14 244 -93 146 -123 253 -124 427 0 98 5 144 23 214 l23 89 -24 24
-24 23 -59 -45 c-275 -214 -653 -264 -940 -126 -196 96 -365 280 -517 569 -63
118 -53 119 -136 -14 -504 -811 -491 -1846 34 -2639 246 -372 582 -667 979
-859 366 -177 800 -262 1210 -236 632 40 1182 296 1622 754 795 826 905 2088
267 3047 -36 54 -68 99 -70 99 -3 0 -7 -6 -9 -12z m-1263 -1520 c59 -25 132
-102 149 -156 l12 -41 50 45 c56 50 115 84 147 84 29 0 70 -44 70 -74 0 -41
-10 -56 -65 -91 -29 -18 -66 -50 -81 -71 l-29 -37 -5 -231 -5 -230 -28 42
c-15 24 -50 59 -78 79 l-51 36 4 164 3 163 -51 0 c-129 0 -253 125 -258 261
-1 56 9 69 61 79 50 9 97 2 155 -22z m-1553 -318 c85 -43 141 -143 141 -251 0
-52 -2 -57 -24 -63 -13 -3 -47 -21 -75 -40 l-51 -35 0 72 c-1 83 -20 145 -51
167 -75 52 -90 100 -44 145 29 30 54 31 104 5z"/>
</g>
</svg>
