<?xml version="1.0" standalone="no"?>
<!DOCTYPE svg PUBLIC "-//W3C//DTD SVG 20010904//EN"
 "http://www.w3.org/TR/2001/REC-SVG-20010904/DTD/svg10.dtd">
<svg version="1.0" xmlns="http://www.w3.org/2000/svg"
 width="512.000000pt" height="512.000000pt" viewBox="0 0 512.000000 512.000000"
 preserveAspectRatio="xMidYMid meet">

<g transform="translate(0.000000,512.000000) scale(0.100000,-0.100000)"
fill="#000000" stroke="none">
<path d="M2916 4705 c-62 -22 -100 -67 -141 -170 -31 -77 -45 -98 -74 -117
-19 -13 -41 -34 -49 -48 -20 -39 -8 -97 28 -135 l32 -33 -117 -523 c-64 -288
-117 -524 -118 -524 -3 -2 -930 -76 -944 -75 -10 0 -13 47 -13 199 l0 199 29
11 c46 19 51 45 51 246 l0 185 29 0 c46 0 57 22 43 87 -23 112 -92 188 -200
219 -158 46 -322 -62 -347 -229 -9 -56 4 -77 46 -77 l29 0 0 -120 c0 -119 0
-120 -24 -120 -29 0 -82 35 -110 73 -18 24 -22 48 -27 150 -6 133 -20 177 -76
228 -32 30 -85 59 -108 59 -12 0 -15 15 -15 85 l0 85 45 0 c85 0 115 31 115
120 0 60 -15 94 -47 109 -13 6 -76 11 -139 11 -130 0 -162 -11 -194 -63 -19
-30 -20 -53 -20 -394 0 -200 -4 -363 -8 -363 -27 0 -32 -62 -32 -415 l0 -365
-28 -6 c-116 -25 -194 -91 -248 -209 -47 -101 -49 -145 -20 -405 14 -129 23
-237 18 -240 -4 -4 -31 -26 -61 -51 -30 -24 -83 -78 -119 -119 -60 -71 -63
-77 -57 -114 10 -66 44 -106 113 -132 1 -1 -13 -34 -33 -75 -157 -332 -87
-726 176 -988 217 -217 531 -307 824 -236 100 25 258 103 343 170 140 110 257
291 302 470 25 98 35 240 22 318 l-9 57 248 0 247 0 7 -29 c6 -29 34 -60 72
-80 13 -7 85 -11 190 -11 l169 0 14 -52 c47 -185 180 -402 332 -543 581 -538
1503 -383 1876 315 196 367 183 829 -34 1180 -34 55 -42 75 -32 81 68 39 177
132 192 163 46 98 -32 195 -249 313 l-70 38 -91 695 -91 695 24 18 c29 23 53
68 53 99 0 33 -34 84 -67 102 -22 11 -35 34 -63 107 -42 112 -84 160 -153 177
-72 19 -1389 16 -1441 -3z m-2017 -621 c48 -40 55 -60 61 -189 5 -86 12 -130
24 -155 37 -72 102 -121 179 -135 30 -6 37 -12 37 -30 0 -43 19 -76 50 -86
l30 -11 0 -209 0 -208 -32 -5 c-48 -8 -282 -26 -328 -26 l-40 0 0 350 c0 338
-5 400 -32 400 -4 0 -8 74 -8 165 0 183 2 187 59 139z m2781 -404 l0 -360
-446 0 c-419 0 -445 1 -440 18 3 9 37 161 76 337 39 176 74 330 77 343 l5 22
364 0 364 0 0 -360z m645 338 c5 -21 105 -683 105 -693 0 -3 -115 -5 -255 -5
l-255 0 0 360 0 360 200 0 c199 0 200 0 205 -22z m-645 -986 l0 -48 -77 -18
c-312 -73 -592 -246 -795 -489 l-48 -58 0 330 0 331 460 0 460 0 0 -48z m470
-138 c321 -44 657 -172 801 -305 34 -31 40 -42 37 -71 -3 -28 -14 -41 -87 -96
l-84 -62 -98 95 c-160 155 -335 255 -549 313 -86 23 -113 26 -285 26 -164 1
-202 -2 -277 -21 -164 -42 -323 -116 -448 -210 -142 -106 -299 -301 -374 -465
-38 -81 -80 -215 -91 -291 l-7 -47 -54 0 c-37 0 -54 4 -54 13 0 6 9 48 20 93
60 250 171 453 348 636 225 232 511 372 837 408 95 10 208 5 365 -16z m-1670
-159 c0 -45 -3 -55 -17 -56 -10 0 -494 -33 -1075 -72 l-1057 -72 -6 48 c-4 27
-3 53 1 57 8 8 1951 146 2092 149 l62 1 0 -55z m1585 -400 c83 -22 208 -83
282 -139 203 -153 318 -432 285 -686 -84 -630 -841 -891 -1287 -445 -110 110
-180 244 -211 402 -66 348 139 712 473 840 143 54 318 65 458 28z m-3021 -65
c55 -6 133 -19 174 -30 316 -87 576 -342 672 -659 l18 -62 -70 3 -71 3 -17 50
c-44 130 -125 251 -234 351 -169 156 -368 234 -596 234 -242 0 -440 -82 -619
-257 -96 -94 -129 -111 -159 -81 -27 27 -12 58 65 139 183 191 421 296 723
317 8 1 60 -3 114 -8z m-42 -601 c161 -34 279 -159 310 -329 22 -115 -23 -252
-110 -339 -157 -157 -406 -158 -562 -1 -157 156 -157 404 -1 560 98 97 230
137 363 109z"/>
<path d="M3730 2264 c-139 -29 -299 -132 -386 -247 -262 -346 -154 -827 230
-1023 237 -122 523 -90 739 81 106 84 203 242 232 380 66 312 -89 622 -380
761 -127 61 -291 79 -435 48z m273 -79 c271 -57 477 -310 477 -585 0 -323
-277 -600 -600 -600 -275 0 -528 206 -585 475 -43 204 16 397 164 545 151 149
343 208 544 165z"/>
<path d="M3835 2111 c-61 -27 -89 -103 -61 -163 36 -75 129 -89 190 -29 26 27
31 39 31 81 0 42 -5 54 -31 81 -33 33 -92 46 -129 30z"/>
<path d="M3817 1790 c-123 -39 -176 -196 -101 -302 88 -125 269 -113 342 22
45 86 15 201 -68 256 -42 28 -126 40 -173 24z"/>
<path d="M3435 1711 c-62 -27 -92 -113 -60 -169 42 -70 130 -81 189 -23 26 27
31 39 31 81 0 42 -5 54 -31 81 -33 33 -92 46 -129 30z"/>
<path d="M4235 1711 c-62 -27 -92 -113 -60 -169 42 -70 130 -81 189 -23 26 27
31 39 31 81 0 42 -5 54 -31 81 -33 33 -92 46 -129 30z"/>
<path d="M3835 1311 c-36 -16 -67 -58 -72 -99 -10 -71 46 -132 121 -132 27 0
46 8 74 34 33 31 37 39 37 85 0 43 -5 55 -31 82 -33 33 -92 46 -129 30z"/>
<path d="M830 1458 c-99 -53 -138 -174 -88 -268 53 -99 173 -138 268 -88 134
72 147 254 23 341 -58 42 -142 47 -203 15z"/>
</g>
</svg>
