<?xml version="1.0" standalone="no"?>
<!DOCTYPE svg PUBLIC "-//W3C//DTD SVG 20010904//EN"
 "http://www.w3.org/TR/2001/REC-SVG-20010904/DTD/svg10.dtd">
<svg version="1.0" xmlns="http://www.w3.org/2000/svg"
 width="512.000000pt" height="512.000000pt" viewBox="0 0 512.000000 512.000000"
 preserveAspectRatio="xMidYMid meet">

<g transform="translate(0.000000,512.000000) scale(0.100000,-0.100000)"
fill="#000000" stroke="none">
<path d="M1196 5105 c-100 -35 -166 -132 -166 -242 0 -35 6 -79 14 -97 17 -41
80 -113 107 -121 10 -4 19 -14 19 -23 0 -9 -43 -191 -96 -403 l-95 -387 -59
-6 c-151 -17 -336 -77 -501 -162 -115 -59 -162 -101 -162 -141 0 -76 71 -114
136 -74 19 12 39 21 45 21 5 0 23 -21 38 -47 15 -27 33 -57 41 -69 12 -20 10
-23 -42 -57 -138 -93 -283 -261 -360 -421 -204 -422 -129 -911 191 -1246 43
-45 107 -102 142 -128 l64 -47 -229 -5 c-125 -3 -235 -9 -244 -13 -19 -10 -39
-49 -39 -78 0 -24 52 -79 74 -79 14 0 16 -60 18 -544 3 -532 3 -545 24 -572
50 -67 56 -69 280 -72 196 -3 204 -4 204 -23 0 -11 11 -31 25 -44 43 -44 108
-27 140 36 l16 29 843 0 844 0 19 -37 c34 -70 112 -70 146 0 l19 37 844 0 843
0 16 -29 c32 -63 97 -80 140 -36 14 13 25 33 25 45 0 19 5 20 199 20 189 0
200 1 232 23 18 12 44 38 56 56 l23 34 0 538 c0 484 2 539 16 539 22 0 74 55
74 79 0 33 -20 68 -47 80 -14 6 -81 11 -157 11 l-133 0 91 93 c59 60 106 118
133 167 130 233 147 496 48 745 l-25 62 0 526 c0 506 -1 528 -20 581 -28 73
-99 147 -175 183 l-60 28 -852 3 -853 2 0 385 0 385 21 0 c72 0 172 67 208
139 63 123 12 277 -113 344 l-41 22 -955 2 c-794 2 -962 0 -994 -12z m674
-989 l0 -484 -103 52 c-161 82 -354 138 -526 152 -68 6 -81 10 -77 23 3 9 42
162 86 341 45 179 85 342 91 363 l10 37 259 0 260 0 0 -484z m860 -361 l0
-845 -135 0 c-88 0 -135 4 -135 11 0 5 -18 48 -40 94 -62 130 -171 285 -276
392 l-94 95 0 549 0 549 340 0 340 0 0 -845z m1448 -642 l-3 -128 -45 -6 c-25
-4 -62 -11 -82 -17 l-38 -10 0 144 0 144 85 0 86 0 -3 -127z m342 -17 l0 -144
-52 14 c-29 7 -65 14 -80 14 l-28 0 0 130 0 130 80 0 80 0 0 -144z m-3275
-128 c212 -45 397 -232 445 -449 18 -82 9 -249 -18 -323 -69 -188 -222 -331
-412 -382 -87 -23 -227 -23 -305 0 -206 61 -360 215 -421 421 -24 81 -24 229
0 310 93 314 391 492 711 423z m3170 -530 c174 -90 237 -286 149 -465 -64
-131 -230 -206 -375 -169 -154 39 -248 154 -257 311 -6 110 21 179 97 256 77
77 138 100 251 96 67 -3 95 -9 135 -29z m-2025 -366 c0 -211 29 -280 142 -336
49 -24 61 -26 197 -26 132 0 151 2 196 24 56 26 98 70 126 131 14 31 19 65 19
153 l0 112 169 0 170 0 6 -57 c23 -225 125 -433 281 -571 l58 -52 -741 0 -740
0 -27 -25 c-14 -13 -26 -33 -26 -45 0 -19 -6 -20 -85 -20 -67 0 -85 3 -85 14
0 8 -11 28 -24 43 -24 28 -25 28 -172 33 l-147 5 70 52 c132 98 260 255 333
407 36 75 76 199 85 260 l7 46 94 0 94 0 0 -148z m340 -41 c0 -135 -7 -151
-64 -151 -33 0 -52 6 -73 24 -27 23 -28 29 -31 125 l-4 101 86 0 86 0 0 -99z"/>
<path d="M1059 2643 c-55 -9 -133 -66 -166 -121 -64 -108 -51 -225 37 -312 87
-88 204 -101 312 -37 60 36 111 110 122 176 9 57 -11 134 -47 188 -50 74 -166
122 -258 106z m108 -195 c53 -49 15 -138 -59 -138 -50 0 -78 28 -78 77 0 74
83 112 137 61z"/>
<path d="M4209 2191 c-32 -33 -36 -58 -14 -100 25 -49 90 -57 130 -16 41 40
33 105 -16 130 -42 22 -67 18 -100 -14z"/>
</g>
</svg>
